<mxfile host="app.diagrams.net" modified="2023-10-03T07:14:39.353Z" agent="Mozilla/5.0 (Windows NT 10.0; Win64; x64) AppleWebKit/537.36 (KHTML, like Gecko) Chrome/117.0.0.0 Safari/537.36" version="22.0.1" etag="MSpZG1UXoIKJ6-vowwIi" type="github">
  <diagram name="Page-1" id="t_p-zGdH02-BSi30yMbw">
    <mxGraphModel>
      <root>
        <mxCell id="0" />
        <mxCell id="1" parent="0" />
      </root>
    </mxGraphModel>
  </diagram>
</mxfile>
